<?xml version="1.0" encoding="UTF-8" standalone="no"?>
<svg
   xmlns:dc="http://purl.org/dc/elements/1.1/"
   xmlns:cc="http://creativecommons.org/ns#"
   xmlns:rdf="http://www.w3.org/1999/02/22-rdf-syntax-ns#"
   xmlns:svg="http://www.w3.org/2000/svg"
   xmlns="http://www.w3.org/2000/svg"
   xml:space="preserve"
   style="enable-background:new 0 0 497.08 497.08;"
   viewBox="0 0 497.08 497.08"
   y="0px"
   x="0px"
   id="Layer_1"
   version="1.1"><metadata
     id="metadata59"><rdf:RDF><cc:Work
         rdf:about=""><dc:format>image/svg+xml</dc:format><dc:type
           rdf:resource="http://purl.org/dc/dcmitype/StillImage" /><dc:title></dc:title></cc:Work></rdf:RDF></metadata><defs
     id="defs57" /><g
     id="g22"><path
       id="path2"
       d="M271.53,227.18h97.494c2.8-12.914,4.216-26.126,4.216-39.52c0-102.9-83.72-186.62-186.62-186.62   v104.4c44.11,0,80,35.88,80,80c0,44.11-35.89,80-80,80v221.9l41.6-52.303V300.93L271.53,227.18z"
       style="fill:#CD2A00;" /><path
       id="path4"
       d="M266.62,185.44c0-44.12-35.89-80-80-80v160C230.73,265.44,266.62,229.55,266.62,185.44z"
       style="fill:#D8D7DA;" /><path
       id="path6"
       d="M106.62,185.44c0-44.12,35.89-80,80-80V1.04C83.72,1.04,0,84.76,0,187.66   c0,42.37,13.9,82.33,40.23,115.62l146.39,184.06v-221.9C142.51,265.44,106.62,229.55,106.62,185.44z"
       style="fill:#FF3501;" /><path
       id="path8"
       d="M106.62,185.44c0,44.11,35.89,80,80,80v-160C142.51,105.44,106.62,141.32,106.62,185.44z"
       style="fill:#FFFFFF;" /><polygon
       id="polygon10"
       points="362.65,300.93 362.65,356.368 412.655,356.368 412.655,496.038 362.65,496.038    497.08,496.04 497.08,300.93  "
       style="fill:#FFCD00;" /><polygon
       id="polygon12"
       points="362.65,300.93 497.08,300.93 453.76,227.18 362.65,227.18  "
       style="fill:#005ECE;" /><polygon
       id="polygon14"
       points="312.646,496.038 312.646,356.368 362.65,356.368 362.65,300.93 228.22,300.93    228.22,496.04 362.65,496.04  "
       style="fill:#FFDA44;" /><polygon
       id="polygon16"
       points="362.65,227.18 271.53,227.18 228.22,300.93 362.65,300.93  "
       style="fill:#2488FF;" /><rect
       id="rect18"
       height="139.67"
       width="50.005"
       style="fill:#FF3501;"
       y="356.368"
       x="312.646" /><rect
       id="rect20"
       height="139.67"
       width="50.005"
       style="fill:#CD2A00;"
       y="356.368"
       x="362.65" /></g><g
     id="g24" /><g
     id="g26" /><g
     id="g28" /><g
     id="g30" /><g
     id="g32" /><g
     id="g34" /><g
     id="g36" /><g
     id="g38" /><g
     id="g40" /><g
     id="g42" /><g
     id="g44" /><g
     id="g46" /><g
     id="g48" /><g
     id="g50" /><g
     id="g52" /></svg>