<?xml version="1.0" encoding="iso-8859-1"?>
<!-- Generator: Adobe Illustrator 19.0.0, SVG Export Plug-In . SVG Version: 6.00 Build 0)  -->
<svg version="1.1" id="Layer_1" xmlns="http://www.w3.org/2000/svg" xmlns:xlink="http://www.w3.org/1999/xlink" x="0px" y="0px"
	 viewBox="0 0 497.08 497.08" style="enable-background:new 0 0 497.08 497.08;" xml:space="preserve">
<g>
	<path style="fill:#CD2A00;" d="M271.53,227.18h97.494c2.8-12.914,4.216-26.126,4.216-39.52c0-102.9-83.72-186.62-186.62-186.62
		v104.4c44.11,0,80,35.88,80,80c0,44.11-35.89,80-80,80v221.9l41.6-52.303V300.93L271.53,227.18z"/>
	<path style="fill:#D8D7DA;" d="M266.62,185.44c0-44.12-35.89-80-80-80v160C230.73,265.44,266.62,229.55,266.62,185.44z"/>
	<path style="fill:#FF3501;" d="M106.62,185.44c0-44.12,35.89-80,80-80V1.04C83.72,1.04,0,84.76,0,187.66
		c0,42.37,13.9,82.33,40.23,115.62l146.39,184.06v-221.9C142.51,265.44,106.62,229.55,106.62,185.44z"/>
	<path style="fill:#FFFFFF;" d="M106.62,185.44c0,44.11,35.89,80,80,80v-160C142.51,105.44,106.62,141.32,106.62,185.44z"/>
	<polygon style="fill:#FFCD00;" points="362.65,300.93 362.65,356.368 412.655,356.368 412.655,496.038 362.65,496.038 
		497.08,496.04 497.08,300.93 	"/>
	<polygon style="fill:#005ECE;" points="362.65,300.93 497.08,300.93 453.76,227.18 362.65,227.18 	"/>
	<polygon style="fill:#FFDA44;" points="312.646,496.038 312.646,356.368 362.65,356.368 362.65,300.93 228.22,300.93 
		228.22,496.04 362.65,496.04 	"/>
	<polygon style="fill:#2488FF;" points="362.65,227.18 271.53,227.18 228.22,300.93 362.65,300.93 	"/>
	<rect x="312.646" y="356.368" style="fill:#FF3501;" width="50.005" height="139.67"/>
	<rect x="362.65" y="356.368" style="fill:#CD2A00;" width="50.005" height="139.67"/>
</g>
<g>
</g>
<g>
</g>
<g>
</g>
<g>
</g>
<g>
</g>
<g>
</g>
<g>
</g>
<g>
</g>
<g>
</g>
<g>
</g>
<g>
</g>
<g>
</g>
<g>
</g>
<g>
</g>
<g>
</g>
</svg>
